<svg height="512pt" viewBox="0 0 512.001 512" width="512pt" xmlns="http://www.w3.org/2000/svg"><path d="m504.5 512h-497c-4.140625 0-7.5-3.359375-7.5-7.5v-14.207031c0-4.144531 3.359375-7.503907 7.5-7.503907h497c4.140625 0 7.5 3.359376 7.5 7.503907v14.207031c0 4.140625-3.359375 7.5-7.5 7.5zm0 0" fill="#7d7d7d"/><path d="m0 490.515625v5.410156h512v-5.410156c0-4.265625-3.457031-7.726563-7.726562-7.726563h-496.546876c-4.269531 0-7.726562 3.460938-7.726562 7.726563zm0 0" fill="#525252"/><path d="m127.03125 129.972656h257.9375v352.816406h-257.9375zm0 0" fill="#b6e5f0"/><path d="m396.832031 102.160156c4.265625 0 7.726563 3.457032 7.726563 7.726563v12.359375c0 4.269531-3.460938 7.726562-7.726563 7.726562h-281.664062c-4.265625 0-7.726563-3.457031-7.726563-7.726562v-12.359375c0-4.265625 3.460938-7.726563 7.726563-7.726563zm0 0" fill="#7d7d7d"/><path d="m356.613281 102.160156v27.8125h40.21875c4.265625 0 7.726563-3.457031 7.726563-7.726562v-12.359375c0-4.265625-3.460938-7.726563-7.726563-7.726563zm0 0" fill="#525252"/><path d="m127.03125 209.460938h-119.53125c-4.140625 0-7.5-3.359376-7.5-7.503907v-12.808593c0-4.144532 3.359375-7.5 7.5-7.5h119.53125zm0 0" fill="#7d7d7d"/><path d="m102.503906 181.648438h24.527344v27.8125h-24.527344zm0 0" fill="#525252"/><path d="m102.503906 181.648438h24.527344v27.8125h-24.527344zm0 0" fill="#525252"/><path d="m325.023438 482.789062h-138.046876v-108.613281c0-11.785156 9.554688-21.339843 21.339844-21.339843h95.367188c11.785156 0 21.335937 9.554687 21.335937 21.339843v108.613281zm0 0" fill="#5b9ed6"/><path d="m238.316406 352.835938h35.367188v129.953124h-35.367188zm0 0" fill="#4d86b5"/><path d="m11.160156 209.460938h115.871094v273.332031h-115.871094zm0 0" fill="#b6e5f0"/><path d="m102.503906 209.460938h24.527344v273.332031h-24.527344zm0 0" fill="#9bc3cc"/><path d="m102.503906 209.460938h24.527344v273.332031h-24.527344zm0 0" fill="#9bc3cc"/><path d="m500.839844 482.789062h-115.871094v-273.328124h115.871094zm0 0" fill="#b6e5f0"/><path d="m384.96875 209.460938h24.527344v273.332031h-24.527344zm0 0" fill="#9bc3cc"/><g fill="#5b9ed6"><path d="m189.222656 268.019531h-25.78125c-4.449218 0-8.054687-3.609375-8.054687-8.058593v-66.984376c0-4.449218 3.605469-8.058593 8.054687-8.058593h25.78125c4.449219 0 8.054688 3.609375 8.054688 8.058593v66.984376c.003906 4.449218-3.605469 8.058593-8.054688 8.058593zm0 0"/><path d="m268.890625 268.019531h-25.78125c-4.449219 0-8.054687-3.609375-8.054687-8.058593v-66.984376c0-4.449218 3.605468-8.058593 8.054687-8.058593h25.78125c4.449219 0 8.054687 3.609375 8.054687 8.058593v66.984376c0 4.449218-3.605468 8.058593-8.054687 8.058593zm0 0"/><path d="m348.558594 268.019531h-25.78125c-4.449219 0-8.054688-3.609375-8.054688-8.058593v-66.984376c0-4.449218 3.605469-8.058593 8.054688-8.058593h25.78125c4.449218 0 8.054687 3.609375 8.054687 8.058593v66.984376c0 4.449218-3.605469 8.058593-8.054687 8.058593zm0 0"/><path d="m81.984375 387.675781h-25.777344c-4.449219 0-8.058593-3.609375-8.058593-8.058593v-66.984376c0-4.449218 3.609374-8.058593 8.058593-8.058593h25.777344c4.453125 0 8.058594 3.609375 8.058594 8.058593v66.984376c0 4.453124-3.605469 8.058593-8.058594 8.058593zm0 0"/><path d="m430.015625 387.675781h25.777344c4.449219 0 8.058593-3.609375 8.058593-8.058593v-66.984376c0-4.449218-3.609374-8.058593-8.058593-8.058593h-25.777344c-4.453125 0-8.058594 3.609375-8.058594 8.058593v66.984376c0 4.453124 3.605469 8.058593 8.058594 8.058593zm0 0"/></g><path d="m504.273438 181.648438c4.269531 0 7.726562 3.457031 7.726562 7.726562v12.359375c0 4.265625-3.457031 7.726563-7.726562 7.726563h-119.304688v-27.8125zm0 0" fill="#7d7d7d"/><path d="m384.96875 181.648438h24.527344v27.8125h-24.527344zm0 0" fill="#525252"/><path d="m327.910156 102.160156v-85.519531c0-9.191406-7.449218-16.640625-16.640625-16.640625h-110.539062c-9.191407 0-16.640625 7.449219-16.640625 16.640625v85.519531zm0 0" fill="#ef2d57"/><path d="m302.5 0v102.160156h25.410156v-85.519531c0-9.191406-7.449218-16.640625-16.640625-16.640625zm0 0" fill="#d4284d"/><path d="m279.695312 43.355469h-15.96875v-15.96875c0-4.269531-3.457031-7.726563-7.726562-7.726563s-7.726562 3.457032-7.726562 7.726563v15.96875h-15.96875c-4.265626 0-7.726563 3.457031-7.726563 7.726562 0 4.265625 3.460937 7.726563 7.726563 7.726563h15.96875v15.964844c0 4.269531 3.457031 7.730468 7.726562 7.730468s7.726562-3.460937 7.726562-7.730468v-15.96875h15.96875c4.265626 0 7.726563-3.457032 7.726563-7.726563 0-4.265625-3.460937-7.722656-7.726563-7.722656zm0 0" fill="#fff"/></svg>