<svg enable-background="new 0 0 24 24" height="512" viewBox="0 0 24 24" width="512" xmlns="http://www.w3.org/2000/svg"><g fill="#2196f3"><path d="m5.75 11.5h-5c-.414 0-.75-.336-.75-.75s.336-.75.75-.75h4.25v-9.25c0-.414.336-.75.75-.75s.75.336.75.75v10c0 .414-.336.75-.75.75z"/><path d="m5.75 24c-.414 0-.75-.336-.75-.75v-9.25h-4.25c-.414 0-.75-.336-.75-.75s.336-.75.75-.75h5c.414 0 .75.336.75.75v10c0 .414-.336.75-.75.75z"/><path d="m2.75 17c-.414 0-.75-.336-.75-.75v-3c0-.414.336-.75.75-.75s.75.336.75.75v3c0 .414-.336.75-.75.75z"/></g><path d="m5.705 5.5h-.705v4.5h-4.25c-.414 0-.75.336-.75.75s.336.75.75.75h4.955zm0-5.499c-.393.024-.705.35-.705.749v3.25h.705z" fill="#1d83d4"/><path d="m2.75 12.5h-2c-.414 0-.75.336-.75.75s.336.75.75.75h1.25v-.75c0-.414.336-.75.75-.75zm2.955 0h-2.955c.414 0 .75.336.75.75v.75h1.5v9.25c0 .399.312.725.705.749z" fill="#1d83d4"/><path d="m23.25 15.5h-15c-.414 0-.75-.336-.75-.75v-14c0-.414.336-.75.75-.75s.75.336.75.75v13.25h14.25c.414 0 .75.336.75.75s-.336.75-.75.75z" fill="#2196f3"/><path d="m8.25 24c-.414 0-.75-.336-.75-.75v-6c0-.414.336-.75.75-.75h15c.414 0 .75.336.75.75s-.336.75-.75.75h-14.25v5.25c0 .414-.336.75-.75.75z" fill="#2196f3"/><g fill="#1d83d4"><path d="m8.25 0c-.414 0-.75.336-.75.75v14c0 .414.336.75.75.75h.045v-5.5h-.045c-.414 0-.75-.336-.75-.75s.336-.75.75-.75h.045v-8.499c-.015-.001-.03-.001-.045-.001z"/><path d="m8.295 16.5h-.045c-.414 0-.75.336-.75.75v6c0 .414.336.75.75.75.015 0 .03 0 .045-.001z"/><path d="m8.295 8.5h-.045c-.414 0-.75.336-.75.75s.336.75.75.75h.045z"/></g><path d="m19 13c-.174 0-.347-.06-.487-.18-.185-.158-4.513-3.905-4.513-7.758 0-2.79 2.243-5.062 5-5.062s5 2.271 5 5.062c0 3.853-4.328 7.6-4.513 7.758-.14.12-.313.18-.487.18z" fill="#f44336"/><path d="m19 7c-1.103 0-2-.897-2-2s.897-2 2-2 2 .897 2 2-.897 2-2 2z" fill="#fff"/><path d="m19 0c-2.757 0-5 2.271-5 5.062 0 3.853 4.328 7.6 4.513 7.758.14.12.313.18.487.18v-6c-1.103 0-2-.897-2-2s.897-2 2-2z" fill="#d43a2f"/><path d="m19 3c-1.103 0-2 .897-2 2s.897 2 2 2z" fill="#dedede"/><path d="m2.75 12.5c-.414 0-.75.336-.75.75v.75 2.25c0 .414.336.75.75.75s.75-.336.75-.75v-2.25-.75c0-.414-.336-.75-.75-.75z" fill="#1d83d4"/><path d="m2.75 12.5c-.414 0-.75.336-.75.75v.75 2.25c0 .414.336.75.75.75.015 0 .03 0 .045-.001v-4.497c-.015-.002-.03-.002-.045-.002z" fill="#1972b9"/><path d="m16.25 22h-2.5c-.414 0-.75-.336-.75-.75v-4c0-.414.336-.75.75-.75s.75.336.75.75v3.25h1.75c.414 0 .75.336.75.75s-.336.75-.75.75z" fill="#2196f3"/><path d="m13.733 16.5c-.406.009-.733.342-.733.75v4c0 .408.327.741.733.75z" fill="#1d83d4"/><path d="m5.75 5.5h-3c-.414 0-.75-.336-.75-.75s.336-.75.75-.75h3c.414 0 .75.336.75.75s-.336.75-.75.75z" fill="#2196f3"/><path d="m5.705 4h-.705-2.25c-.414 0-.75.336-.75.75s.336.75.75.75h2.25.705z" fill="#1d83d4"/><path d="m6.5 4.75h-.795v.75h-.705-2.25c-.414 0-.75-.336-.75-.75 0 .414.336.75.75.75h3c.414 0 .75-.336.75-.75z" fill="#1d83d4"/><path d="m5.705 4.75h-3.705c0 .414.336.75.75.75h2.25.705z" fill="#1972b9"/><path d="m13.5 10h-5.25c-.414 0-.75-.336-.75-.75s.336-.75.75-.75h5.25c.414 0 .75.336.75.75s-.336.75-.75.75z" fill="#2196f3"/><path d="m14.25 9.25h-6.75c0 .414.336.75.75.75h5.25c.414 0 .75-.336.75-.75z" fill="#1d83d4"/></svg>