<svg width="287" height="266">
  <defs>
    <clipPath id="a">
      <path data-name="Retângulo 2" fill="none" stroke="#449281" stroke-linecap="round" stroke-width="7" d="M114 124h287v266H114z"/>
    </clipPath>
  </defs>
  <g transform="translate(-114 -124)" clip-path="url(#a)">
    <g data-name="Grupo 1">
      <g data-name="Caminho 2" fill="none" stroke-linecap="round">
        <path d="M256.591 124a132.362 132.362 0 00-121.7 80.264l-1.65.547.64 1.919A132.352 132.352 0 10256.591 124zm103.823 199.1l-6.8-6.792v-15.825a4.407 4.407 0 00-.441-1.972l-17.207-34.366v-16.607a4.412 4.412 0 00-1.963-3.671l-13.236-8.824a4.413 4.413 0 00-3.53-.609l-16.21 4.05-27.227-11.683-3.746-26.243 10.382-10.377h22.288l7.5 11.273a4.412 4.412 0 002.947 1.9l26.472 4.412a4.375 4.375 0 002.118-.168l24.381-8.127a123.1 123.1 0 01-5.728 123.626zm-18.2-155.62l-7.174 4.783-20-4-12.976-4.319a4.333 4.333 0 00-2.462-.1l-16.4 4.1-7.192-2.4 5.33-10.66h14.922a4.411 4.411 0 001.972-.463l15.264-7.632a123.991 123.991 0 0128.718 20.687zm-133.99-24.8l10.589 7.059a4.406 4.406 0 001.725.679l21.381 3.565-2.087 6.243-11.14 3.719a4.413 4.413 0 00-2.387 1.91l-12.67 21.114-20.353 12.213-30 4.284a4.412 4.412 0 00-3.794 4.364v13.235a4.412 4.412 0 001.293 3.119l7.531 7.531v7.58l-18.358-12.238-6.656-19.973a124.249 124.249 0 0164.928-64.408zm-12.559 144.655l-19.943-3.993-7.412-14.785v-10.368l16.444-16.44 6.084 12.173a4.413 4.413 0 003.949 2.44h28.383l11.952 19.921a4.412 4.412 0 003.781 2.14h12.266l-3.088 15.473-16.7 16.7a4.414 4.414 0 00-1.3 3.119v11.03l-15.885 11.917a4.413 4.413 0 00-1.765 3.53v15.936l-5.489-1.818-7.748-19.378v-43.273a4.412 4.412 0 00-3.529-4.324zm-13.263 67.825a123.507 123.507 0 01-44-134.871l3.666 10.995a4.409 4.409 0 001.734 2.277l21.994 14.661-5.017 5.021a4.412 4.412 0 00-1.293 3.119v13.236a4.411 4.411 0 00.463 1.972l8.824 17.648a4.414 4.414 0 003.088 2.352l18.531 3.7v40.509a4.413 4.413 0 00.313 1.637l8.824 22.06a4.413 4.413 0 002.7 2.546l13.236 4.412a4.335 4.335 0 001.372.229 4.412 4.412 0 004.412-4.412v-19.854l15.889-11.908a4.413 4.413 0 001.765-3.53v-11.41l16.351-16.36a4.415 4.415 0 001.2-2.255l4.412-22.06a4.412 4.412 0 00-4.324-5.277H241.4l-11.952-19.921a4.412 4.412 0 00-3.781-2.14h-28.158l-7.58-15.208a4.411 4.411 0 00-3.243-2.383 4.324 4.324 0 00-3.825 1.235l-5.727 5.7v-7a4.412 4.412 0 00-1.293-3.119l-7.531-7.522v-7.585l27.1-3.869a4.433 4.433 0 001.646-.587l22.06-13.236a4.41 4.41 0 001.509-1.509l12.4-20.662 11.688-3.9a4.367 4.367 0 002.788-2.788l4.412-13.236a4.413 4.413 0 00-3.459-5.736l-25.54-4.258-4.487-2.991a123.2 123.2 0 0184.853 3.155l-8.061 4.024h-16.607a4.412 4.412 0 00-3.971 2.44l-8.824 17.648a4.413 4.413 0 002.555 6.155l13.236 4.412a4.333 4.333 0 002.462.1l16.4-4.1 12.018 4a3.244 3.244 0 00.529.141l22.06 4.412a4.381 4.381 0 003.313-.653l10.042-6.7a124.472 124.472 0 0113.271 17.732l-21.702 7.241-23.5-3.918-7.765-11.648a4.412 4.412 0 00-3.649-1.963h-26.475a4.412 4.412 0 00-3.119 1.293l-13.239 13.236a4.412 4.412 0 00-1.249 3.746l4.412 30.884a4.412 4.412 0 002.647 3.428l30.89 13.233a4.361 4.361 0 002.806.225l15.755-3.94 9.632 6.433v15.291a4.407 4.407 0 00.441 1.972l17.207 34.366v16.607a4.411 4.411 0 001.293 3.119l9.23 9.234a123.507 123.507 0 01-172.916 24.673z"/>
        <path d="M256.571 124h.02c73.102.01 132.353 59.28 132.342 132.382-.01 73.097-59.266 132.342-132.361 132.342h-.094a132.294 132.294 0 01-49.709-9.694c-67.706-27.452-100.338-104.593-72.886-172.3l-.64-1.919 1.65-.547c20.848-48.693 68.71-80.268 121.678-80.264zm38.648 22.06l8.06-4.024a123.186 123.186 0 00-84.852-3.154l4.487 2.991 25.537 4.258a4.412 4.412 0 013.459 5.736l-4.412 13.236a4.367 4.367 0 01-2.789 2.788l-11.687 3.9-12.398 20.662a4.41 4.41 0 01-1.509 1.509l-22.06 13.236a4.432 4.432 0 01-1.646.587l-27.099 3.87v7.584l7.531 7.531a4.411 4.411 0 011.293 3.12v6.997l5.727-5.705a4.324 4.324 0 013.825-1.235 4.411 4.411 0 013.243 2.382l7.58 15.209h28.158c1.549 0 2.984.812 3.781 2.14l11.952 19.92h15.151a4.412 4.412 0 014.324 5.277l-4.412 22.06a4.415 4.415 0 01-1.204 2.255l-16.356 16.355v11.41a4.413 4.413 0 01-1.765 3.53l-15.883 11.912v19.855a4.412 4.412 0 01-4.412 4.412 4.334 4.334 0 01-1.372-.23l-13.237-4.412a4.413 4.413 0 01-2.704-2.546l-8.824-22.06a4.413 4.413 0 01-.314-1.637v-40.507l-18.53-3.702a4.414 4.414 0 01-3.089-2.351l-8.824-17.649a4.411 4.411 0 01-.463-1.972v-13.236c0-1.17.465-2.292 1.293-3.12l5.016-5.02-21.994-14.662a4.41 4.41 0 01-1.734-2.276l-3.666-10.995c-15.191 49.737 2.401 103.661 44.001 134.87 22.223 16.673 48.228 24.72 74.024 24.72 37.54 0 74.627-17.054 98.89-49.394l-9.23-9.235a4.411 4.411 0 01-1.293-3.119v-16.607l-17.207-34.366a4.407 4.407 0 01-.442-1.972v-15.288l-9.631-6.433-15.756 3.94a4.362 4.362 0 01-2.806-.225l-30.884-13.236a4.412 4.412 0 01-2.647-3.428l-4.412-30.884a4.412 4.412 0 011.248-3.746l13.236-13.237a4.412 4.412 0 013.12-1.292h26.472a4.412 4.412 0 013.649 1.963l7.765 11.648 23.503 3.918 21.708-7.236a124.473 124.473 0 00-13.272-17.732l-10.042 6.698a4.38 4.38 0 01-3.313.652l-22.06-4.412a3.24 3.24 0 01-.53-.14l-12.018-4.002-16.405 4.098a4.327 4.327 0 01-2.461-.097l-13.237-4.412a4.412 4.412 0 01-2.555-6.155l8.825-17.648a4.412 4.412 0 013.97-2.44h16.608zM168.31 239.296v-7.58l-7.531-7.531a4.412 4.412 0 01-1.293-3.12V207.83a4.412 4.412 0 013.794-4.363l30.002-4.284 20.353-12.213 12.672-21.116a4.413 4.413 0 012.387-1.91l11.14-3.72 2.087-6.243-21.38-3.565a4.407 4.407 0 01-1.726-.68l-10.589-7.059a124.249 124.249 0 00-64.928 64.408l6.658 19.973 18.354 12.24zm166.732-67.037l7.174-4.783a123.992 123.992 0 00-28.718-20.688l-15.266 7.633a4.411 4.411 0 01-1.968.463h-14.926l-5.33 10.66 7.192 2.396 16.404-4.1a4.326 4.326 0 012.462.098l12.976 4.32 20 4.001zm5.326 35.569c-.242 0-.484-.02-.724-.06l-26.472-4.413a4.412 4.412 0 01-2.948-1.901l-7.5-11.273h-22.286l-10.381 10.377 3.746 26.243 27.227 11.683 16.21-4.05a4.414 4.414 0 013.53.609l13.235 8.824a4.412 4.412 0 011.964 3.67v16.608l17.207 34.365c.298.615.449 1.29.44 1.973v15.821l6.798 6.793c23.991-37.183 26.178-84.382 5.729-123.624l-24.381 8.127a4.38 4.38 0 01-1.394.228zM194.78 256.362c-1.672 0-3.2-.945-3.947-2.44l-6.085-12.173-16.439 16.44v10.368l7.412 14.785 19.943 3.993a4.412 4.412 0 013.53 4.324v43.273l7.747 19.378 5.489 1.818V340.19c0-1.388.654-2.696 1.765-3.53l15.883-11.912v-11.03a4.414 4.414 0 011.297-3.12l16.704-16.704 3.089-15.473h-12.266a4.412 4.412 0 01-3.781-2.14l-11.952-19.92h-28.388-.001z" fill="#449281"/>
      </g>
    </g>
  </g>
</svg>
