<svg width="20" height="25" viewBox="0 0 20 25" fill="none" xmlns="http://www.w3.org/2000/svg">
<path d="M19.7747 5.09736L14.6465 0.214551C14.5022 0.0771973 14.3066 0 14.1026 0H2.82051C1.26528 0 0 1.20474 0 2.68555V22.3145C0 23.7953 1.26528 25 2.82051 25H17.1795C18.7347 25 20 23.7953 20 22.3145V5.61523C20 5.421 19.9189 5.23472 19.7747 5.09736ZM14.8718 2.50063L17.3737 4.88281H14.8718V2.50063ZM17.1795 23.5352H2.82051C2.11359 23.5352 1.53846 22.9875 1.53846 22.3145V2.68555C1.53846 2.01245 2.11359 1.46484 2.82051 1.46484H13.3333V5.61523C13.3333 6.01973 13.6777 6.34766 14.1026 6.34766H18.4615V22.3145C18.4615 22.9875 17.8864 23.5352 17.1795 23.5352Z" fill="black"/>
<path d="M15.1282 9.86328C14.1561 9.86328 13.2822 9.34902 12.8476 8.52129L12.7393 8.31509C12.609 8.06689 12.3426 7.91016 12.0513 7.91016H7.94869C7.65731 7.91016 7.39095 8.06689 7.26064 8.31504L7.15238 8.52119C6.71772 9.34902 5.84382 9.86328 4.87177 9.86328C4.44695 9.86328 4.10254 10.1912 4.10254 10.5957V14.7752C4.10254 16.4185 4.6471 17.984 5.67731 19.3024C6.70751 20.6208 8.12587 21.5672 9.77895 22.0394C9.85105 22.06 9.92551 22.0703 9.99997 22.0703C10.0744 22.0703 10.1489 22.06 10.221 22.0394C11.8741 21.5672 13.2924 20.6208 14.3226 19.3024C15.3528 17.984 15.8974 16.4185 15.8974 14.7752V10.5957C15.8974 10.1912 15.553 9.86328 15.1282 9.86328ZM14.3589 14.7752C14.3589 17.4245 12.6168 19.7257 9.99997 20.5692C7.3831 19.7257 5.641 17.4245 5.641 14.7752V11.2599C6.80515 11.0506 7.81726 10.3712 8.41664 9.37495H11.5833C12.1827 10.3711 13.1948 11.0506 14.3589 11.2599V14.7752Z" fill="black"/>
<path d="M11.6314 13.0912L9.27441 15.3354L8.36784 14.4723C8.06748 14.1863 7.58041 14.1863 7.28 14.4723C6.97958 14.7583 6.97958 15.222 7.28 15.5081L8.73046 16.8891C8.88066 17.0322 9.07753 17.1037 9.27435 17.1037C9.47117 17.1037 9.6681 17.0322 9.81825 16.8891L12.7192 14.127C13.0196 13.841 13.0196 13.3773 12.7192 13.0912C12.4189 12.8052 11.9318 12.8052 11.6314 13.0912Z" fill="black"/>
</svg>
