<svg width="19" height="20" viewBox="0 0 19 20" fill="none" xmlns="http://www.w3.org/2000/svg">
<path d="M8.93039 18.854H3.71392C2.29626 18.854 1.14601 17.6995 1.14601 16.2861V3.71392C1.14601 2.29626 2.30051 1.14601 3.71392 1.14601H9.01528C9.33362 1.14601 9.58829 0.891341 9.58829 0.573005C9.58829 0.254669 9.33362 0 9.01528 0H3.71392C1.66384 0 0 1.66808 0 3.71392V16.2861C0 18.3362 1.66808 20 3.71392 20H8.93039C9.24873 20 9.5034 19.7453 9.5034 19.427C9.5034 19.1087 9.24448 18.854 8.93039 18.854Z" fill="black"/>
<path d="M18.3703 9.59673L14.7286 5.95497C14.5036 5.73002 14.1428 5.73002 13.9179 5.95497C13.6929 6.17993 13.6929 6.54071 13.9179 6.76567L16.5834 9.4312H4.95777C4.63943 9.4312 4.38477 9.68587 4.38477 10.0042C4.38477 10.3225 4.63943 10.5772 4.95777 10.5772H16.5834L13.9179 13.2427C13.6929 13.4677 13.6929 13.8285 13.9179 14.0534C14.0282 14.1638 14.1768 14.2232 14.3211 14.2232C14.4654 14.2232 14.614 14.168 14.7243 14.0534L18.3661 10.4117C18.5953 10.1825 18.5953 9.81744 18.3703 9.59673Z" fill="black"/>
</svg>
