<svg xmlns="http://www.w3.org/2000/svg" xmlns:xlink="http://www.w3.org/1999/xlink" width="35" height="35" viewBox="0 0 35 35">
  <defs>
    <clipPath id="clip-path">
      <rect id="Retângulo_17" data-name="Retângulo 17" width="35" height="35" transform="translate(0 0.333)" fill="#449281" stroke="#707070" stroke-width="1"/>
    </clipPath>
  </defs>
  <g id="linkedinVerde" transform="translate(0 -0.333)" clip-path="url(#clip-path)">
    <g id="linkedin" transform="translate(0 -0.121)">
      <g id="post-linkedin">
        <path id="Caminho_58" data-name="Caminho 58" d="M31.5,0H3.5A3.51,3.51,0,0,0,0,3.5v28A3.51,3.51,0,0,0,3.5,35h28A3.51,3.51,0,0,0,35,31.5V3.5A3.51,3.51,0,0,0,31.5,0Zm-21,29.75H5.25V14H10.5ZM7.875,11.025a3.15,3.15,0,1,1,3.15-3.15A3.137,3.137,0,0,1,7.875,11.025ZM29.75,29.75H24.5V20.475a2.625,2.625,0,1,0-5.25,0V29.75H14V14h5.25v2.1a5.653,5.653,0,0,1,4.375-2.45,6.2,6.2,0,0,1,6.125,6.125Z" fill="#449281"/>
      </g>
    </g>
  </g>
</svg>
