<svg xmlns="http://www.w3.org/2000/svg" xmlns:xlink="http://www.w3.org/1999/xlink" width="35" height="35" viewBox="0 0 35 35">
  <defs>
    <clipPath id="clip-path">
      <rect id="Retângulo_17" data-name="Retângulo 17" width="35" height="35" transform="translate(0 0.333)" fill="#449281" stroke="#707070" stroke-width="1"/>
    </clipPath>
  </defs>
  <g id="TwitterVerde" transform="translate(0 -0.333)" clip-path="url(#clip-path)">
    <g id="twitter_1_" data-name="twitter (1)" transform="translate(0 -0.121)">
      <g id="post-twitter">
        <path id="Caminho_57" data-name="Caminho 57" d="M31.5,0H3.5A3.51,3.51,0,0,0,0,3.5v28A3.51,3.51,0,0,0,3.5,35h28A3.51,3.51,0,0,0,35,31.5V3.5A3.51,3.51,0,0,0,31.5,0ZM27.475,12.775c-.175,8.05-5.25,13.65-12.95,14A12.738,12.738,0,0,1,7,24.675a9.29,9.29,0,0,0,6.825-1.925A4.727,4.727,0,0,1,9.45,19.425a7.059,7.059,0,0,0,1.925,0A4.767,4.767,0,0,1,7.7,14.7a3.528,3.528,0,0,0,1.925.525c-1.575-.875-2.625-4.2-1.4-6.3a13.867,13.867,0,0,0,9.625,4.9c-1.225-4.9,5.425-7.525,8.05-4.2a11.789,11.789,0,0,0,2.975-1.05A4.948,4.948,0,0,1,26.95,11.2a10.032,10.032,0,0,0,2.45-.7C29.225,11.375,28.35,12.075,27.475,12.775Z" fill="#449281"/>
      </g>
    </g>
  </g>
</svg>
